<?xml version="1.0" encoding="utf-8"?>
<!-- Generator: Adobe Illustrator 24.1.3, SVG Export Plug-In . SVG Version: 6.00 Build 0)  -->
<svg version="1.1" id="Layer_1" xmlns="http://www.w3.org/2000/svg" xmlns:xlink="http://www.w3.org/1999/xlink" x="0px" y="0px"
	 viewBox="0 0 100 62" style="enable-background:new 0 0 100 62;" xml:space="preserve">
<style type="text/css">
	.st0{fill:#E2B668;}
	.st1{fill:#FFF7EB;}
	.st2{fill:#15495E;}
	.st3{fill:none;stroke:#E2B668;stroke-width:3;stroke-miterlimit:10;}
	.st4{fill:none;stroke:#E2B668;stroke-width:2;stroke-miterlimit:10;}
	.st5{fill:none;stroke:#E2B668;stroke-width:2;stroke-linecap:round;stroke-miterlimit:10;}
	.st6{fill:none;stroke:#E2B668;stroke-miterlimit:10;}
	.st7{fill:none;stroke:#000000;stroke-width:2;stroke-linecap:round;stroke-linejoin:round;stroke-miterlimit:10;}
</style>
<g>
	<g>
		<path class="st2" d="M17.9,47.9c-0.1,0.6-0.2,1.1-0.5,1.6c-0.3,0.5-0.6,0.9-1,1.3c-0.4,0.4-0.9,0.7-1.4,0.9
			c-0.5,0.2-1,0.3-1.6,0.3c-0.7,0-1.3-0.1-1.9-0.3c-0.6-0.2-1.1-0.4-1.5-0.8c-0.4-0.3-0.8-0.8-1.1-1.3c-0.3-0.5-0.4-1.1-0.5-1.8
			c0-0.4,0-0.8,0-1.3c0-0.5,0.1-1,0.3-1.6c0.2-0.6,0.4-1.3,0.8-2c0.4-0.7,0.8-1.5,1.4-2.3l-7.4,0c-0.3,0.7-0.6,1.3-0.8,1.9
			c-0.2,0.6-0.4,1.1-0.5,1.7C2,44.9,1.9,45.5,1.8,46c-0.1,0.5-0.1,1-0.1,1.5c0,1.8,0.3,3.3,0.8,4.7c0.5,1.4,1.3,2.6,2.3,3.6
			c1,1,2.2,1.8,3.6,2.3c1.4,0.5,3,0.8,4.7,0.8c1.7,0,3.2-0.3,4.5-0.9c1.4-0.6,2.5-1.4,3.5-2.4c1-1,1.8-2.2,2.3-3.5
			c0.6-1.3,0.9-2.8,1-4.3l0.2-14.5H18L17.9,47.9z"/>
		<path class="st2" d="M9.4,35c0.3,0.3,0.6,0.5,1,0.7c0.4,0.2,0.8,0.3,1.3,0.3c0.4,0,0.9-0.1,1.2-0.3c0.4-0.2,0.7-0.4,1-0.7
			c0.3-0.3,0.5-0.6,0.7-1c0.2-0.4,0.3-0.8,0.3-1.2c0-0.4-0.1-0.9-0.3-1.2c-0.2-0.4-0.4-0.7-0.7-1c-0.3-0.3-0.6-0.5-1-0.7
			c-0.4-0.2-0.8-0.3-1.2-0.3c-0.5,0-0.9,0.1-1.3,0.3c-0.4,0.2-0.7,0.4-1,0.7c-0.3,0.3-0.5,0.6-0.7,1c-0.2,0.4-0.3,0.8-0.3,1.2
			c0,0.4,0.1,0.9,0.3,1.2C8.9,34.4,9.1,34.7,9.4,35z"/>
		<polygon class="st2" points="33.5,22.2 26.6,22.3 26.6,48.1 33.6,48.1 		"/>
		<g>
			<path class="st0" d="M41.4,27.7c0.3,0.3,0.6,0.5,1,0.7c0.4,0.2,0.8,0.3,1.3,0.3c0.4,0,0.9-0.1,1.2-0.3c0.4-0.2,0.7-0.4,1-0.7
				c0.3-0.3,0.5-0.6,0.7-1c0.2-0.4,0.3-0.8,0.3-1.2c0-0.4-0.1-0.9-0.3-1.2c-0.2-0.4-0.4-0.7-0.7-1c-0.3-0.3-0.6-0.5-1-0.7
				c-0.4-0.2-0.8-0.3-1.2-0.3c-0.5,0-0.9,0.1-1.3,0.3c-0.4,0.2-0.7,0.4-1,0.7c-0.3,0.3-0.5,0.6-0.7,1c-0.2,0.4-0.3,0.8-0.3,1.2
				c0,0.4,0.1,0.9,0.3,1.2C40.9,27,41.1,27.4,41.4,27.7z"/>
		</g>
		<path class="st2" d="M53.2,53.4c-0.3-0.3-0.6-0.5-1-0.7c-0.4-0.2-0.8-0.3-1.2-0.3c-0.5,0-0.9,0.1-1.3,0.3c-0.4,0.2-0.7,0.4-1,0.7
			c-0.3,0.3-0.5,0.6-0.7,1c-0.2,0.4-0.3,0.8-0.3,1.2c0,0.4,0.1,0.9,0.3,1.2c0.2,0.4,0.4,0.7,0.7,1c0.3,0.3,0.6,0.5,1,0.7
			c0.4,0.2,0.8,0.3,1.3,0.3c0.4,0,0.9-0.1,1.2-0.3c0.4-0.2,0.7-0.4,1-0.7c0.3-0.3,0.5-0.6,0.7-1c0.2-0.4,0.3-0.8,0.3-1.2
			c0-0.4-0.1-0.9-0.3-1.2C53.7,54,53.5,53.7,53.2,53.4z"/>
		<path class="st2" d="M60.4,53.4c-0.3-0.3-0.6-0.5-1-0.7c-0.4-0.2-0.8-0.3-1.2-0.3c-0.5,0-0.9,0.1-1.3,0.3c-0.4,0.2-0.7,0.4-1,0.7
			c-0.3,0.3-0.5,0.6-0.7,1c-0.2,0.4-0.3,0.8-0.3,1.2c0,0.4,0.1,0.9,0.3,1.2c0.2,0.4,0.4,0.7,0.7,1c0.3,0.3,0.6,0.5,1,0.7
			c0.4,0.2,0.8,0.3,1.3,0.3c0.4,0,0.9-0.1,1.2-0.3c0.4-0.2,0.7-0.4,1-0.7c0.3-0.3,0.5-0.6,0.7-1c0.2-0.4,0.3-0.8,0.3-1.2
			c0-0.4-0.1-0.9-0.3-1.2C60.9,54,60.7,53.7,60.4,53.4z"/>
		<path class="st2" d="M82.4,41L81,41l0,0h-1.7v-2.8c0-1.1-0.2-2.2-0.6-3.2c-0.4-1-1-1.9-1.7-2.6c-0.7-0.7-1.6-1.3-2.6-1.8
			c-1-0.4-2-0.7-3.2-0.7c-1.1,0-2.2,0.2-3.2,0.7c-1,0.4-1.9,1-2.7,1.8c-0.8,0.8-1.4,1.7-1.8,2.7c-0.4,1-0.7,2.1-0.7,3.2V41h-1.2l0,0
			h-2.9l0-7.6h-7.1l0,7.6h-2h-1.1h-1.1l0-7.6h-6.9v14.9c0,0.7-0.1,1.2-0.3,1.6c-0.2,0.4-0.5,0.8-0.8,1.1c-0.3,0.3-0.6,0.5-1,0.7
			c-0.4,0.2-0.7,0.3-1.1,0.3c-0.3,0.1-0.6,0.1-0.9,0.1c-0.3,0-0.5,0-0.6,0h-2.2l0,6.7h2.3c1.7,0,3.2-0.3,4.6-0.7
			c1.4-0.5,2.6-1.1,3.6-2c1-0.9,1.8-2,2.4-3.3c0.6-1.3,0.9-2.9,0.9-4.8v-0.1h1.1h1.1h7c0.3,0,0.6,0,0.9-0.1c0.2-0.1,0.4-0.2,0.6-0.4
			c0.2-0.1,0.3-0.3,0.4-0.5c0.1-0.2,0.2-0.4,0.2-0.6c0.1,0.2,0.3,0.4,0.4,0.6c0.2,0.2,0.4,0.4,0.6,0.5c0.2,0.2,0.5,0.3,0.8,0.4
			c0.1,0,0.2,0.1,0.3,0.1v0.1h0.7h0.2h2.9c0.3,0,0.5,0,0.9-0.1c0.3-0.1,0.6-0.2,1-0.4c0.3-0.2,0.7-0.5,1-0.9
			c0.3-0.4,0.6-0.9,0.9-1.6v3h12H81h6.2c0.6,0,1-0.1,1.3-0.3c0.3-0.2,0.5-0.5,0.6-0.8c0.1-0.3,0.2-0.7,0.2-1c0-0.4,0-0.7,0-0.9
			l0-22.8h-7L82.4,41z M69,38.2c0-0.3,0.1-0.5,0.2-0.7c0.1-0.2,0.3-0.4,0.4-0.6c0.2-0.2,0.4-0.3,0.6-0.4c0.2-0.1,0.5-0.1,0.8-0.1
			c0.6,0,1,0.2,1.4,0.5c0.3,0.4,0.5,0.8,0.6,1.3V41h-4L69,38.2z"/>
		<polygon class="st2" points="98.2,22.2 91.3,22.3 91.3,48.1 98.3,48.1 		"/>
	</g>
	<g>
		<path class="st2" d="M27.7,7.3c0-1.8,0-2.8,0-3.1c0-0.2-0.1-0.4-0.1-0.6c-0.1-0.1-0.2-0.2-0.5-0.3c-0.1,0-0.3,0-0.5,0
			c-0.1,0-0.1,0-0.1-0.1c0-0.1,0.1-0.1,0.2-0.1c0.2,0,0.4,0,0.7,0c0.3,0,0.5,0,0.7,0c0.2,0,0.3,0,0.3,0c1.5,0,2.6,0,3.3,0
			c0.1,0,0.2,0,0.4,0c0.2,0,0.2,0,0.3,0c0,0,0.1,0,0.1-0.1c0,0,0.1-0.1,0.1-0.1c0,0,0,0,0,0.1c0,0,0,0.1,0,0.1c0,0.1,0,0.1,0,0.2
			c0,0.1,0,0.2,0,0.3c0,0,0,0.2,0,0.4s0,0.4,0,0.5c0,0.1,0,0.2-0.1,0.2c-0.1,0-0.1-0.1-0.1-0.2c0-0.2,0-0.4-0.1-0.5
			c-0.1-0.1-0.1-0.2-0.3-0.3c-0.1-0.1-0.4-0.1-0.7-0.2c-0.3,0-1,0-2,0c-0.1,0-0.1,0-0.1,0.1v4C28.9,7.9,29,8,29,8c1.3,0,2.1,0,2.3,0
			c0.4,0,0.6-0.1,0.7-0.2c0.1-0.1,0.2-0.2,0.2-0.2c0.1,0,0.1,0,0.1,0.1c0,0,0,0.1,0,0.1c0,0.1,0,0.2-0.1,0.3c0,0.1,0,0.3,0,0.4
			c0,0.6,0,0.9,0,0.9c0,0.2,0,0.3-0.1,0.3c-0.1,0-0.1,0-0.1-0.1c0-0.2,0-0.3,0-0.5c-0.1-0.3-0.3-0.5-0.7-0.5c-0.4,0-1-0.1-2.1-0.1
			c-0.1,0-0.1,0-0.1,0.1v1.3v2.5c0,0.5,0.1,0.8,0.3,1c0.2,0.1,0.6,0.2,1.3,0.2c0.7,0,1.1-0.1,1.4-0.2c0.3-0.1,0.6-0.5,0.6-1
			c0-0.1,0.1-0.2,0.1-0.2c0.1,0,0.1,0.1,0.1,0.2c0,0.1,0,0.3-0.1,0.7c0,0.4-0.1,0.6-0.1,0.7c0,0.1-0.1,0.2-0.1,0.3
			c-0.1,0-0.1,0.1-0.2,0.1s-0.2,0-0.5,0c-0.6,0-1.2,0-1.7,0c-0.5,0-0.9,0-1.2,0c-0.3,0-0.5,0-0.6,0h-0.6c-0.4,0-0.7,0-0.8,0
			c-0.2,0-0.2,0-0.2-0.1c0-0.1,0-0.1,0.1-0.1c0.1,0,0.3,0,0.4-0.1c0.2,0,0.3-0.3,0.4-0.8c0-0.4,0.1-1.4,0.1-3.1V7.3z"/>
		<path class="st2" d="M36.5,9.9c0,1.1,0,1.9,0.1,2.4c0,0.5,0.1,0.8,0.3,0.9c0.2,0.2,0.8,0.3,1.7,0.3c0.3,0,0.6,0,0.7,0
			c0.2,0,0.4-0.1,0.5-0.1c0.2-0.1,0.3-0.2,0.4-0.3c0.2-0.2,0.3-0.5,0.4-0.9c0-0.1,0.1-0.2,0.1-0.2c0.1,0,0.1,0.1,0.1,0.2
			c0,0.4-0.1,0.9-0.2,1.4c-0.1,0.2-0.1,0.3-0.2,0.3c-0.1,0-0.3,0.1-0.7,0.1c-0.8,0-1.6,0-2.4,0c-0.8,0-1.3,0-1.5,0h-0.2
			c-0.1,0-0.3,0-0.4,0c-0.4,0-0.7,0-0.8,0c-0.1,0-0.2,0-0.2-0.1c0-0.1,0-0.1,0.1-0.1c0.2,0,0.3,0,0.4,0c0.2-0.1,0.4-0.3,0.4-0.8
			c0.1-0.4,0.1-1.4,0.1-3.1V7.3c0-1.8,0-2.8,0-3.1c0-0.3-0.1-0.4-0.2-0.6c-0.1-0.1-0.2-0.2-0.5-0.2c-0.1,0-0.3,0-0.5,0
			c-0.1,0-0.1,0-0.1-0.1c0-0.1,0.1-0.1,0.2-0.1c0.2,0,0.4,0,0.7,0c0.3,0,0.5,0,0.7,0c0.2,0,0.3,0,0.3,0s0.1,0,0.3,0
			c0.2,0,0.4,0,0.7,0c0.2,0,0.4,0,0.6,0c0.2,0,0.2,0,0.2,0.1c0,0.1,0,0.1-0.1,0.1c-0.1,0-0.3,0-0.5,0c-0.4,0.1-0.5,0.3-0.6,0.8
			c0,0.3,0,1.3,0,3.1V9.9z"/>
		<path class="st2" d="M60.8,12.8l-0.7-7h0l-3.5,7.5c-0.2,0.3-0.3,0.5-0.3,0.6c0,0.1-0.1,0.1-0.2,0.1c-0.1,0-0.2-0.2-0.4-0.6
			l-1.7-3.3c-0.1-0.1-0.4-0.8-0.9-2C52.4,6.8,52.1,6.2,52,6h-0.1l-0.6,6.7c0,0.1,0,0.4,0,0.7c0,0.2,0.1,0.4,0.4,0.4
			c0.2,0,0.4,0.1,0.5,0.1c0.1,0,0.1,0,0.1,0.1c0,0.1-0.1,0.1-0.3,0.1c-0.2,0-0.5,0-0.8,0l-0.5,0c0,0-0.2,0-0.5,0c-0.3,0-0.5,0-0.7,0
			c-0.2,0-0.2,0-0.2-0.1c0-0.1,0-0.1,0.1-0.1c0.1,0,0.3,0,0.4,0c0.1,0,0.3-0.1,0.4-0.2c0.1-0.1,0.1-0.3,0.2-0.4c0-0.1,0-0.3,0.1-0.6
			l1-9.4c0-0.2,0.1-0.3,0.2-0.3c0.1,0,0.1,0.1,0.2,0.2l4.4,9l4.2-9C60.6,3.1,60.6,3,60.7,3c0.1,0,0.1,0.1,0.2,0.4l0.9,9.1
			c0.1,0.6,0.3,1.1,0.6,1.6c0.3,0.5,0.7,0.9,1.1,1.2c0.4,0.3,0.9,0.5,1.3,0.7c0.5,0.2,0.9,0.3,1.3,0.4c0.4,0.1,0.8,0.1,1.1,0.1
			c0.3,0,0.6,0,0.9-0.1c0.3,0,0.6-0.1,0.9-0.1c0.3-0.1,0.5-0.1,0.7-0.1c0.2,0,0.4-0.1,0.5-0.1c0.1,0,0.2-0.1,0.2-0.1
			c0,0,0.1,0,0.1,0.1c0,0.1,0,0.1-0.1,0.2c-0.1,0-0.2,0.1-0.5,0.2c-0.3,0.1-0.5,0.2-0.7,0.3c-0.2,0.1-0.4,0.1-0.7,0.2
			s-0.6,0.2-1,0.2c-0.4,0-0.7,0.1-1.1,0c-0.4,0-0.8,0-1.1-0.1c-0.3,0-0.7-0.1-1.1-0.3c-0.5-0.2-1-0.4-1.4-0.8
			C61.6,15.2,60.9,14.1,60.8,12.8z"/>
		<path class="st2" d="M67.2,9.9c0,1.7,0,2.7,0.1,3.1c0.1,0.5,0.2,0.7,0.6,0.8c0.3,0,0.5,0.1,0.7,0.1c0.1,0,0.1,0,0.1,0.1
			c0,0.1-0.1,0.1-0.2,0.1c-0.2,0-0.5,0-0.8,0c-0.3,0-0.5,0-0.7,0l-0.3,0c0,0-0.1,0-0.3,0c-0.2,0-0.4,0-0.6,0c-0.2,0-0.4,0-0.5,0
			c-0.1,0-0.2,0-0.2-0.1c0-0.1,0-0.1,0.1-0.1c0.1,0,0.3,0,0.4-0.1c0.2,0,0.3-0.3,0.4-0.8C66,12.6,66,11.6,66,9.9V7.4
			c0-1.8,0-2.8,0-3.1c0-0.5-0.2-0.7-0.5-0.8c-0.1,0-0.3,0-0.4,0c-0.1,0-0.1,0-0.1-0.1c0-0.1,0.1-0.1,0.2-0.1h1.4H68
			c0.1,0,0.2,0,0.2,0.1c0,0.1,0,0.1-0.1,0.1c-0.1,0-0.2,0-0.4,0c-0.2,0-0.3,0.1-0.4,0.2c-0.1,0.1-0.1,0.3-0.1,0.6c0,0.3,0,1.3,0,3.1
			V9.9z"/>
		<path class="st2" d="M75.3,13.5c0.7,0,1.2-0.1,1.5-0.2c0.3-0.1,0.6-0.3,0.7-0.5c0.1-0.1,0.2-0.3,0.2-0.5c0-0.2,0.1-0.3,0.1-0.4
			c0-0.1,0.1-0.1,0.1-0.1c0.1,0,0.1,0.1,0.1,0.3c0,0.2-0.1,0.8-0.3,1.7c-0.1,0.2-0.1,0.3-0.1,0.3c0,0-0.1,0.1-0.3,0.1
			c-0.8,0-2,0-3.6,0c-1.6,0-2.9,0-3.7,0c-0.2,0-0.3,0-0.3-0.1s0.1-0.2,0.2-0.4c3-4.5,5.1-7.8,6.3-9.7h-3.1c-1,0-1.7,0.1-2.1,0.3
			c-0.3,0.1-0.5,0.3-0.6,0.6s-0.2,0.4-0.2,0.6c0,0.2-0.1,0.2-0.1,0.2c-0.1,0-0.1-0.1-0.1-0.2c0-0.2,0.1-0.9,0.3-1.9
			c0-0.2,0.1-0.3,0.1-0.3c0,0,0.1,0,0.2,0.1c0.1,0,0.2,0.1,0.4,0.1h2.5h4c0.2,0,0.3,0,0.3,0.1c0,0.1,0,0.1,0,0.2
			c-0.5,0.8-1.6,2.4-3.1,4.8c-1.6,2.3-2.7,4.1-3.3,5.1H75.3z"/>
		<path class="st2" d="M80.5,7.3c0-1.8,0-2.8,0-3.1c0-0.2-0.1-0.4-0.1-0.6c-0.1-0.1-0.2-0.2-0.5-0.3c-0.1,0-0.3,0-0.5,0
			c-0.1,0-0.1,0-0.1-0.1c0-0.1,0.1-0.1,0.2-0.1c0.2,0,0.4,0,0.7,0c0.3,0,0.5,0,0.7,0c0.2,0,0.3,0,0.3,0c1.5,0,2.6,0,3.3,0
			c0.1,0,0.2,0,0.4,0c0.2,0,0.2,0,0.3,0c0,0,0.1,0,0.1-0.1c0,0,0.1-0.1,0.1-0.1c0,0,0,0,0,0.1c0,0,0,0.1,0,0.1c0,0.1,0,0.1,0,0.2
			c0,0.1,0,0.2,0,0.3c0,0,0,0.2,0,0.4s0,0.4,0,0.5c0,0.1,0,0.2-0.1,0.2c-0.1,0-0.1-0.1-0.1-0.2c0-0.2,0-0.4-0.1-0.5
			c-0.1-0.1-0.1-0.2-0.3-0.3c-0.1-0.1-0.4-0.1-0.7-0.2c-0.3,0-1,0-2,0c-0.1,0-0.1,0-0.1,0.1v4c0,0.1,0,0.1,0.1,0.1
			c1.3,0,2.1,0,2.3,0c0.4,0,0.6-0.1,0.7-0.2c0.1-0.1,0.2-0.2,0.2-0.2c0.1,0,0.1,0,0.1,0.1c0,0,0,0.1,0,0.1c0,0.1,0,0.2-0.1,0.3
			c0,0.1,0,0.3,0,0.4c0,0.6,0,0.9,0,0.9c0,0.2,0,0.3-0.1,0.3c-0.1,0-0.1,0-0.1-0.1c0-0.2,0-0.3,0-0.5c-0.1-0.3-0.3-0.5-0.7-0.5
			c-0.4,0-1-0.1-2.1-0.1c-0.1,0-0.1,0-0.1,0.1v1.3v2.5c0,0.5,0.1,0.8,0.3,1c0.2,0.1,0.6,0.2,1.3,0.2c0.7,0,1.1-0.1,1.4-0.2
			c0.3-0.1,0.6-0.5,0.6-1c0-0.1,0.1-0.2,0.1-0.2c0.1,0,0.1,0.1,0.1,0.2c0,0.1,0,0.3-0.1,0.7c0,0.4-0.1,0.6-0.1,0.7
			c0,0.1-0.1,0.2-0.1,0.3c-0.1,0-0.1,0.1-0.2,0.1c-0.1,0-0.2,0-0.5,0c-0.6,0-1.2,0-1.7,0c-0.5,0-0.9,0-1.2,0c-0.3,0-0.5,0-0.6,0
			h-0.6c-0.4,0-0.7,0-0.8,0c-0.2,0-0.2,0-0.2-0.1c0-0.1,0-0.1,0.1-0.1c0.1,0,0.3,0,0.4-0.1c0.2,0,0.3-0.3,0.4-0.8
			c0-0.4,0.1-1.4,0.1-3.1V7.3z"/>
		<path class="st2" d="M88.5,12.1c0,0.6,0.1,1,0.1,1.2c0.1,0.2,0.2,0.4,0.4,0.4c0.2,0.1,0.4,0.1,0.7,0.1c0.1,0,0.1,0,0.1,0.1
			c0,0.1-0.1,0.1-0.3,0.1h-1.5h-1.4c-0.1,0-0.2,0-0.2-0.1c0-0.1,0-0.1,0.1-0.1c0.3,0,0.5,0,0.6-0.1c0.2,0,0.3-0.2,0.4-0.4
			c0.1-0.2,0.1-0.7,0.1-1.4l0-8.2c0-0.5,0.1-0.7,0.2-0.7c0.1,0,0.2,0.2,0.5,0.5c0.2,0.2,1.7,1.8,4.6,4.9l3.5,3.8l-0.2-7.3
			c0-0.5-0.1-0.8-0.1-1c-0.1-0.2-0.2-0.3-0.4-0.4c-0.2,0-0.5-0.1-0.7-0.1c-0.1,0-0.1,0-0.1-0.1c0,0,0.1-0.1,0.3-0.1h1.5h1.2
			c0.2,0,0.3,0,0.3,0.1c0,0.1-0.1,0.1-0.2,0.1c-0.1,0-0.2,0-0.3,0c-0.2,0-0.4,0.2-0.4,0.3C97,3.9,97,4.3,97,4.7l0,8.4
			c0,0.2,0,0.4,0,0.6c0,0.1,0,0.2,0,0.3c0,0.1,0,0.1,0,0.1c0,0,0,0-0.1,0c-0.1,0-0.4-0.3-1.1-0.9c-0.1-0.1-0.3-0.3-0.7-0.7
			c-0.4-0.4-0.9-0.9-1.5-1.5c-0.6-0.6-1.1-1.2-1.6-1.7l-3.7-4.1L88.5,12.1z"/>
	</g>
</g>
</svg>
