<?xml version="1.0" encoding="utf-8"?>
<!-- Generator: Adobe Illustrator 24.1.3, SVG Export Plug-In . SVG Version: 6.00 Build 0)  -->
<svg version="1.1" id="Layer_1" xmlns="http://www.w3.org/2000/svg" xmlns:xlink="http://www.w3.org/1999/xlink" x="0px" y="0px"
	 viewBox="0 0 72 70" style="enable-background:new 0 0 72 70;" xml:space="preserve">
<style type="text/css">
	.st0{fill:#E2B668;}
</style>
<g>
	<g>
		<path class="st0" d="M36,67.6C18,67.6,3.4,53,3.4,35S18,2.4,36,2.4S68.6,17,68.6,35S54,67.6,36,67.6z M36,2.8
			C18.3,2.8,3.8,17.3,3.8,35S18.3,67.2,36,67.2S68.2,52.7,68.2,35S53.7,2.8,36,2.8z"/>
		<path class="st0" d="M36,68C17.8,68,3,53.2,3,35S17.8,2,36,2s33,14.8,33,33S54.2,68,36,68z M36,3.2C18.5,3.2,4.2,17.5,4.2,35
			S18.5,66.8,36,66.8S67.8,52.5,67.8,35S53.5,3.2,36,3.2z"/>
	</g>
	<g>
		<path class="st0" d="M37,49.9v4.7h-2.2v-4.5c-3,0-5.5-0.6-7.4-1.8v-3.7c0.8,0.7,2,1.3,3.4,1.8c1.4,0.5,2.8,0.7,4,0.7v-11
			c-3.1-1.5-5.2-2.9-6.1-4.2c-0.9-1.3-1.4-2.8-1.4-4.5c0-2.1,0.7-3.9,2.1-5.4c1.4-1.5,3.2-2.4,5.4-2.7v-3.9H37v3.8
			c2.8,0.1,4.7,0.5,5.8,1.2v3.6c-1.5-1.1-3.4-1.8-5.8-1.8v11.3c3,1.4,5,2.8,6.1,4.1c1.1,1.3,1.6,2.8,1.6,4.5c0,2-0.7,3.7-2,5.1
			C41.3,48.6,39.4,49.5,37,49.9z M34.8,32.3v-10c-1.2,0.2-2.2,0.8-2.9,1.6c-0.7,0.8-1.1,1.8-1.1,3c0,1.2,0.3,2.2,0.9,3
			C32.3,30.7,33.3,31.5,34.8,32.3z M37,37.2v9.7c2.8-0.6,4.1-2.1,4.1-4.5C41.1,40.5,39.8,38.7,37,37.2z"/>
	</g>
</g>
</svg>
