<?xml version="1.0" encoding="utf-8"?>
<!-- Generator: Adobe Illustrator 24.1.3, SVG Export Plug-In . SVG Version: 6.00 Build 0)  -->
<svg version="1.1" id="Layer_1" xmlns="http://www.w3.org/2000/svg" xmlns:xlink="http://www.w3.org/1999/xlink" x="0px" y="0px"
	 viewBox="0 0 34.7 30.7" style="enable-background:new 0 0 34.7 30.7;" xml:space="preserve">
<style type="text/css">
	.st0{fill:#E2B668;}
</style>
<g>
	<g>
		<path class="st0" d="M25.5,6.9c-1,0.5-2,1-3,1.5c-4.6,2.5-9.1,5-13.8,7.4c-0.7,0.4-2,0.4-2.6-0.1c-1.9-1.3-3.5-2.9-5.7-4.8
			C11.9,7.6,22.7,4.2,34.1,0.7c-4.3,9.8-8.2,18.9-12.4,28.4c-2.1-1.7-3.9-3.3-6-5c-1.5,1.9-3,3.6-4.8,5.9c0-3.5-0.1-6.3,0.1-9.2
			c0-0.7,0.9-1.5,1.5-2.1L25.5,6.9z"/>
	</g>
</g>
</svg>
