<?xml version="1.0" encoding="utf-8"?>
<!-- Generator: Adobe Illustrator 24.1.3, SVG Export Plug-In . SVG Version: 6.00 Build 0)  -->
<svg version="1.1" id="Layer_1" xmlns="http://www.w3.org/2000/svg" xmlns:xlink="http://www.w3.org/1999/xlink" x="0px" y="0px"
	 viewBox="0 0 26 20.3" style="enable-background:new 0 0 26 20.3;" xml:space="preserve">
<style type="text/css">
	.st0{fill:#15495E;}
</style>
<g>
	<path class="st0" d="M8.6,20.2c-1.4,0-2.8-0.2-4.1-0.6c-1.2-0.4-2.4-0.9-3.5-1.6L0.9,18L0,17.2l1.1,0.1c2.3,0.2,4.3-0.3,6.1-1.4
		c-1.1-0.3-2.1-0.8-2.8-1.7c-0.5-0.5-0.8-1.1-1-1.8l-0.2-0.6l0.6,0.1c0.2,0,0.3,0,0.5,0c-2-1.2-2.7-3.3-2.6-4.6l0-0.6l0.5,0.3
		C2.5,7.1,2.7,7.2,3,7.2C2.3,6.4,1.8,5.5,1.7,4.4C1.6,3.3,1.8,2.2,2.4,1.1l0.3-0.5L3,1.1C5.5,4,8.7,5.7,12.4,6c0,0,0,0,0,0
		c0-0.3,0-0.7,0-1c0.1-2.2,1.7-4.2,3.8-4.8c2-0.5,3.7-0.1,5.2,1.3c0.9-0.2,1.8-0.6,2.6-1c0,0,0.1,0,0.1-0.1l0.9-0.4l-0.2,0.8
		c-0.2,0.6-0.5,1.2-0.9,1.6c-0.1,0.1-0.2,0.2-0.2,0.3c0.2,0,0.3-0.1,0.5-0.1c0.3-0.1,0.6-0.2,0.9-0.2L26,2.2l-1.1,1.3
		c-0.3,0.3-0.6,0.7-0.9,1c-0.2,0.2-0.5,0.4-0.7,0.6c-0.1,0.1-0.3,0.2-0.4,0.4c0,5.2-2.1,9.4-6.3,12.4c-1.7,1.2-3.7,2-6,2.3
		C10,20.2,9.3,20.2,8.6,20.2z M2.6,18.1c0.7,0.3,1.4,0.6,2.1,0.8c1.9,0.5,3.8,0.7,5.8,0.4c2.2-0.3,4.1-1,5.7-2.1
		c3.9-2.8,5.9-6.8,6-11.8c0-0.2,0.1-0.4,0.3-0.6c0.1-0.1,0.3-0.3,0.5-0.4c0.2-0.2,0.4-0.4,0.6-0.6c0.1-0.1,0.2-0.3,0.3-0.4
		c0,0-0.1,0-0.1,0c-0.3,0.1-0.6,0.2-1,0.2l-1.7,0.4l1-0.9c0.1-0.1,0.3-0.2,0.4-0.4C22.7,2.6,23,2.3,23.2,2c0.1-0.1,0.2-0.3,0.3-0.4
		c-0.6,0.3-1.3,0.5-2,0.7c-0.2,0-0.4,0.1-0.7-0.2c-1.3-1.2-2.7-1.6-4.4-1.1c-1.8,0.5-3.2,2.2-3.3,4.1c0,0.3,0,0.6,0,0.9
		c0,0.2,0,0.3,0,0.5l0,0.4l-0.4,0C8.8,6.6,5.5,4.9,2.8,2C2.5,2.8,2.4,3.5,2.5,4.3c0.2,1.3,0.8,2.4,2,3.2l1,0.7l-1.2,0
		C3.6,8.2,3,8.1,2.4,7.9c0.1,1.4,1.2,3.3,3.5,3.9l1.5,0.4L6,12.5c-0.6,0.2-1.2,0.2-1.6,0.2c0.2,0.4,0.4,0.7,0.7,1
		c0.9,1,2,1.5,3.3,1.6l1.1,0.1L8.5,16C6.7,17.3,4.8,18,2.6,18.1z"/>
</g>
</svg>
