<?xml version="1.0" encoding="utf-8"?>
<!-- Generator: Adobe Illustrator 24.1.3, SVG Export Plug-In . SVG Version: 6.00 Build 0)  -->
<svg version="1.1" id="Layer_1" xmlns="http://www.w3.org/2000/svg" xmlns:xlink="http://www.w3.org/1999/xlink" x="0px" y="0px"
	 viewBox="0 0 144.3 100" style="enable-background:new 0 0 144.3 100;" xml:space="preserve">
<style type="text/css">
	.st0{fill:#E2B668;}
	.st1{fill:none;stroke:#E2B668;stroke-width:3;stroke-miterlimit:10;}
</style>
<g>
	<path class="st0" d="M109,61.8L69.5,33.1h-6.1c-3.8,9.2-14,10.7-19.9,10.9l0,0c-2.1,0-3.8-1.3-4.2-3.3c-0.2-1,0-1.9,0.4-2.7
		l14.9-20.7c1.5-1.9,3.6-2.9,6.1-2.7l42.9,3.3l17,28.9L109,61.8z M62.3,31.7h7.5l0.2,0.2l38.5,27.8l10-13.2l-16.1-27.4l-42.3-3.3
		c-1.9-0.2-3.6,0.6-4.8,2.1L40.6,38.6c-0.2,0.6-0.2,1-0.2,1.7c0.4,1.5,1.5,2.3,2.9,2.3c5.7,0,15.5-1.5,18.8-10.5L62.3,31.7z"/>
	<path class="st0" d="M129.3,50.5c-1.7,0-3.1-0.8-4-2.3L105,13.9c-0.6-1-0.8-2.3-0.4-3.6c0.4-1.3,1-2.3,2.1-2.9l7.7-4.6
		c1-0.6,2.3-0.8,3.6-0.4s2.3,1,2.9,2.1L141,38.8c0.6,1,0.8,2.3,0.4,3.6c-0.4,1.3-1,2.3-2.1,2.9l-7.7,4.6
		C130.8,50.3,130,50.5,129.3,50.5z M126.4,47.4c0.8,1.7,2.9,2.1,4.6,1.3l7.7-4.6c0.8-0.4,1.3-1.3,1.5-2.1c0.2-0.8,0-1.7-0.4-2.5
		L119.7,5.3c-0.4-0.8-1.3-1.3-2.1-1.5c-0.8-0.2-1.7,0-2.5,0.4l-7.7,4.6c-0.8,0.4-1.3,1.3-1.5,2.1c-0.2,0.8,0,1.7,0.4,2.5L126.4,47.4
		z"/>
	<path class="st0" d="M122,50.5c-0.6,0-1.3-0.4-1.5-0.8l-18.8-32c-0.4-0.8-0.2-1.9,0.6-2.5l2.1-1.3c0.4-0.2,0.8-0.2,1.5-0.2
		c0.4,0.2,0.8,0.4,1,0.8l18.6,31.8c0.2,0.4,0.2,0.8,0.2,1.5c-0.2,0.4-0.4,0.8-0.8,1l-2.1,1.3C122.6,50.3,122.2,50.5,122,50.5z
		 M121.6,48.8c0.2,0.2,0.4,0.2,0.6,0.2l2.1-1.3l0.2-0.2c0-0.2,0-0.2,0-0.4l-18.6-31.8l-0.2-0.2c-0.2,0-0.2,0-0.4,0l-2.1,1.3
		c-0.2,0.2-0.2,0.4-0.2,0.6L121.6,48.8z"/>
	<path class="st0" d="M14.2,52.8c-0.8,0-1.7-0.2-2.5-0.6l-7.5-4.8c-2.1-1.5-2.9-4.4-1.5-6.5L23.8,7.4c1.5-2.1,4.4-2.9,6.5-1.5
		l7.5,4.8c2.1,1.5,2.9,4.4,1.5,6.5L18.2,50.7c-0.6,1-1.7,1.9-2.9,2.1C14.8,52.8,14.4,52.8,14.2,52.8z M27.8,6.5
		c-1,0-2.1,0.6-2.7,1.5L3.7,41.7c-1,1.5-0.4,3.6,1,4.6l7.5,4.8c0.8,0.4,1.7,0.6,2.5,0.4c0.8-0.2,1.7-0.6,2.1-1.5l21.1-33.5
		c1-1.5,0.4-3.6-1-4.6l-7.5-4.8C29.1,6.7,28.4,6.5,27.8,6.5z"/>
	<path class="st0" d="M21.5,52.8c-0.4,0-0.6,0-1-0.2l-2.1-1.3c-0.8-0.6-1-1.7-0.6-2.5l19.7-31.2c0.4-0.6,0.8-0.8,1.3-1
		c0.4-0.2,1,0,1.5,0.2l2.1,1.3c0.8,0.6,1,1.7,0.6,2.5l0,0L23.2,51.7c-0.2,0.4-0.6,0.6-1,0.8C21.7,52.8,21.7,52.8,21.5,52.8z
		 M39.1,18L39.1,18c-0.2,0-0.2,0-0.4,0.2L19,49.4c-0.2,0.2,0,0.4,0.2,0.6l2.1,1.3c0,0,0.2,0,0.4,0c0.2,0,0.2,0,0.2-0.2l19.7-31.2
		l0,0c0.2-0.2,0-0.4-0.2-0.6L39.3,18C39.3,18,39.3,18,39.1,18z"/>
	<path class="st0" d="M36.6,72.1l-9-7.3c-0.4-0.2-0.8-0.6-1.3-1c-2.7-2.7-4.6-6.3-5.2-10.3l-0.2-1.3l1.5-0.2l0.2,1
		c0.6,3.8,2.3,6.9,5,9.6c0.4,0.4,0.8,0.6,1,1l9,7.3L36.6,72.1z"/>
	<rect x="46.8" y="14.8" transform="matrix(0.1296 -0.9916 0.9916 0.1296 21.564 64.5855)" class="st0" width="1.5" height="10.5"/>
	<path class="st0" d="M51,86.3c-1.3,0-2.7-0.4-3.8-1.5l0,0c-2.5-2.1-2.9-5.9-0.8-8.6l10.3-12.6c2.1-2.5,5.9-2.9,8.6-0.8
		c1.3,1,2.1,2.5,2.1,4.2c0.2,1.7-0.4,3.1-1.3,4.4L55.8,84C54.4,85.4,52.7,86.3,51,86.3z M47.9,83.8c2.1,1.7,5,1.3,6.5-0.6l10.3-12.6
		c0.8-1,1.3-2.1,1-3.3c-0.2-1.3-0.6-2.3-1.7-3.1c-2.1-1.7-5-1.3-6.5,0.6L47.3,77.3C45.6,79.2,46,82.1,47.9,83.8L47.9,83.8z"/>
	<path class="st1" d="M90.6,61.6"/>
	<path class="st0" d="M107.1,72.5c-1.5,0-2.9-0.4-4.2-1.3l0.8-1c1,0.8,2.5,1.3,3.8,1c1.5-0.2,2.5-0.8,3.3-1.9
		c1.7-2.3,1.5-5.4-0.6-6.9l-1.7-1.3l0.8-1l1.7,1.3c2.7,1.9,3.1,6.1,1,9c-1,1.5-2.5,2.3-4.4,2.3C107.6,72.5,107.3,72.5,107.1,72.5z"
		/>
	<path class="st0" d="M100.2,82.5c-1.3,0-2.3-0.4-3.3-1l-13-9.6l0.8-1l13,9.6c2.1,1.5,5.2,0.8,6.9-1.5c1.7-2.3,1.5-5.4-0.6-6.9
		l-13-9.6l0.8-1l13,9.6c2.7,1.9,3.1,6.1,1,9C104.2,81.5,102.1,82.5,100.2,82.5z"/>
	<path class="st0" d="M90.8,90.3c-1.3,0-2.5-0.4-3.3-1l-7.5-5.7l0.8-1l7.3,5.4c1,0.8,2.3,1,3.6,0.8c1.3-0.2,2.5-1,3.3-2.1
		c1.7-2.3,1.5-5.4-0.6-6.9l-13-9.6l0.8-1.3l13,9.6c2.7,1.9,3.1,6.1,1,9c-1,1.5-2.5,2.3-4.2,2.7C91.6,90.1,91.2,90.3,90.8,90.3z"/>
	<path class="st0" d="M81.4,97.8c-1.3,0-2.3-0.4-3.3-1l-2.9-2.3l0.8-1l2.7,2.3c2.1,1.5,5,0.8,6.9-1.5c0.8-1,1.3-2.5,1-3.8
		c-0.2-1.3-0.8-2.5-1.7-3.1l-6.5-5.2l0.8-1l6.5,5.2c1.3,1,2.1,2.5,2.3,4.2c0.2,1.7-0.2,3.3-1.3,4.8C85.4,97,83.3,97.8,81.4,97.8z"/>
	<path class="st0" d="M59.6,93c-1.5,0-2.7-0.4-3.8-1.5c-1.3-1-2.1-2.5-2.1-4.2c-0.2-1.7,0.4-3.1,1.3-4.4l9-10.9
		c2.1-2.5,5.9-2.9,8.6-0.8c1.3,1,2.1,2.5,2.1,4.2c0.2,1.7-0.4,3.1-1.3,4.4l-9,10.9c-1,1.3-2.5,2.1-4.2,2.1C60,93,59.8,93,59.6,93z
		 M68.6,71.4c-0.2,0-0.4,0-0.4,0c-1.3,0.2-2.3,0.6-3.1,1.7l-9,10.9c-0.8,1-1.3,2.1-1,3.3c0.2,1.3,0.6,2.3,1.7,3.1
		c2.1,1.7,5,1.3,6.5-0.6l9-10.9c0.8-1,1.3-2.1,1-3.3c-0.2-1.3-0.6-2.3-1.7-3.1C70.7,71.8,69.7,71.4,68.6,71.4z"/>
	<path class="st0" d="M69.5,97.8c-1.5,0-2.7-0.4-3.8-1.5c-2.5-2.1-2.9-5.9-0.8-8.6l5.4-6.5c1-1.3,2.5-2.1,4.2-2.1
		c1.7-0.2,3.1,0.4,4.4,1.3c2.5,2.1,2.9,5.9,0.8,8.6l-5.4,6.5c-1,1.3-2.5,2.1-4.2,2.1C69.9,97.8,69.7,97.8,69.5,97.8z M74.7,80.6
		c-0.2,0-0.4,0-0.4,0c-1.3,0.2-2.3,0.6-3.1,1.7l-5.4,6.5c-1.7,2.1-1.3,5,0.6,6.5c1,0.8,2.1,1.3,3.3,1c1.3-0.2,2.3-0.6,3.1-1.7
		l5.4-6.5c1.7-2.1,1.3-5-0.6-6.5C77,80.8,75.9,80.6,74.7,80.6z"/>
	<path class="st0" d="M42.2,79c-1.5,0-2.7-0.4-3.8-1.5l0,0c-2.5-2.1-2.9-5.9-0.8-8.6l6.1-7.3c1-1.3,2.5-2.1,4.2-2.1
		c1.7-0.2,3.1,0.4,4.4,1.3c1.3,1,2.1,2.5,2.1,4.2c0.2,1.7-0.4,3.1-1.3,4.4l-6.1,7.3c-1,1.3-2.5,2.1-4.2,2.1C42.7,79,42.5,79,42.2,79
		z M39.3,76.4c1,0.8,2.1,1.3,3.3,1s2.3-0.6,3.1-1.7l6.1-7.3c1.7-2.1,1.3-5-0.6-6.5c-2.1-1.7-5-1.3-6.5,0.6L38.7,70
		C37,71.8,37.4,74.8,39.3,76.4L39.3,76.4z"/>
</g>
</svg>
