<?xml version="1.0" encoding="utf-8"?>
<!-- Generator: Adobe Illustrator 24.1.3, SVG Export Plug-In . SVG Version: 6.00 Build 0)  -->
<svg version="1.1" id="Layer_1" xmlns="http://www.w3.org/2000/svg" xmlns:xlink="http://www.w3.org/1999/xlink" x="0px" y="0px"
	 viewBox="0 0 20 20.3" style="enable-background:new 0 0 20 20.3;" xml:space="preserve">
<style type="text/css">
	.st0{fill:#15495E;}
</style>
<g>
	<g>
		<path class="st0" d="M14,13.9l-0.7-0.7c-0.9-0.9-1.8-1.9-2.8-2.8c-0.2-0.2-0.3-0.5-0.3-0.9c0-1.6,0-3.1,0-4.7l0-1.5h0.1l0,1.5
			c0,1.5,0,3.1,0,4.7c0,0.3,0.1,0.6,0.3,0.8c0.9,0.9,1.9,1.9,2.8,2.8L14,13.9L14,13.9z"/>
		<path class="st0" d="M14,14.4l-1-1c-0.9-0.9-1.8-1.9-2.8-2.8C9.9,10.3,9.8,10,9.8,9.5c0-1.6,0-3.1,0-4.7l0-1.9h0.9l0,2.2
			c0,1.5,0,2.9,0,4.4c0,0.3,0.1,0.4,0.2,0.5c0.9,0.9,1.9,1.8,2.8,2.7l1,1L14,14.4z"/>
	</g>
	<g>
		<path class="st0" d="M10.2,19.2c-1.6,0-3.2-0.5-4.7-1.4c-2.8-1.7-4.3-4.3-4.4-7.7C1,7.9,1.7,5.9,3.1,4.2c1-1.2,2.1-2.1,3.5-2.6
			c0.9-0.4,1.8-0.6,3-0.8l0,0.1c-1.2,0.2-2.2,0.4-3,0.7C5.3,2.2,4.1,3.1,3.2,4.2c-1.4,1.7-2.1,3.7-2,5.8c0.1,3.3,1.6,5.9,4.3,7.6
			c2.7,1.7,5.7,1.8,8.6,0.5c3.1-1.5,4.9-4,5.1-7.4c0.3-3.9-1.3-6.9-4.9-8.9c-1.3-0.7-2.8-1.1-4.6-1l0-0.1c1.8,0,3.4,0.3,4.7,1
			c3.6,2,5.2,5,4.9,9c-0.3,3.4-2.1,6-5.2,7.5C12.8,18.9,11.5,19.2,10.2,19.2z"/>
		<path class="st0" d="M10.2,19.6c-1.7,0-3.4-0.5-4.9-1.5c-2.9-1.8-4.5-4.5-4.6-8C0.6,7.8,1.3,5.8,2.8,3.9c1-1.2,2.2-2.1,3.7-2.7
			c0.8-0.3,1.7-0.6,2.9-0.7l0,0L10,0.4l0,0c1.8,0,3.3,0.4,4.6,1.1c3.7,2.1,5.4,5.2,5.1,9.3c-0.3,3.5-2.2,6.2-5.4,7.8
			C12.9,19.3,11.6,19.6,10.2,19.6z M9.7,1.3C8.6,1.4,7.6,1.7,6.8,2C5.5,2.5,4.4,3.4,3.5,4.5c-1.4,1.7-2,3.5-2,5.6
			c0.1,3.2,1.5,5.7,4.2,7.3c2.6,1.6,5.5,1.8,8.2,0.5c3-1.4,4.7-3.9,4.9-7.1c0.3-3.8-1.3-6.6-4.7-8.5C12.9,1.6,11.5,1.2,9.7,1.3
			L9.7,1.3z"/>
	</g>
</g>
</svg>
