<?xml version="1.0" encoding="utf-8"?>
<!-- Generator: Adobe Illustrator 24.1.3, SVG Export Plug-In . SVG Version: 6.00 Build 0)  -->
<svg version="1.1" id="Layer_1" xmlns="http://www.w3.org/2000/svg" xmlns:xlink="http://www.w3.org/1999/xlink" x="0px" y="0px"
	 viewBox="0 0 9.8 9.7" style="enable-background:new 0 0 9.8 9.7;" xml:space="preserve">
<style type="text/css">
	.st0{fill:#FFF7EB;}
</style>
<path class="st0" d="M9,9.4c-0.1,0-0.3,0-0.4-0.1L0.5,1.2C0.4,1,0.4,0.6,0.5,0.4s0.5-0.2,0.7,0l8.1,8.1c0.2,0.2,0.2,0.5,0,0.7
	C9.3,9.4,9.1,9.4,9,9.4z"/>
<path class="st0" d="M0.9,9.4c-0.1,0-0.3,0-0.4-0.1c-0.2-0.2-0.2-0.5,0-0.7l8.1-8.1c0.2-0.2,0.5-0.2,0.7,0s0.2,0.5,0,0.7L1.3,9.3
	C1.2,9.4,1,9.4,0.9,9.4z"/>
</svg>
