<?xml version="1.0" encoding="utf-8"?>
<!-- Generator: Adobe Illustrator 24.1.3, SVG Export Plug-In . SVG Version: 6.00 Build 0)  -->
<svg version="1.1" id="Layer_1" xmlns="http://www.w3.org/2000/svg" xmlns:xlink="http://www.w3.org/1999/xlink" x="0px" y="0px"
	 viewBox="0 0 72 26" style="enable-background:new 0 0 72 26;" xml:space="preserve">
<style type="text/css">
	.st0{fill:#E2B668;}
</style>
<g>
	<path class="st0" d="M66.8,14.2H5.5c-0.7,0-1.2-0.6-1.2-1.2c0-0.7,0.6-1.2,1.2-1.2h61.3c0.7,0,1.2,0.6,1.2,1.2
		C68,13.7,67.4,14.2,66.8,14.2z"/>
	<path class="st0" d="M18.7,22.8c-0.2,0-0.4-0.1-0.6-0.2L5.3,15.3C4.5,14.8,4,14,4,13s0.5-1.8,1.3-2.3l12.8-7.4
		c0.6-0.3,1.4-0.1,1.7,0.5c0.3,0.6,0.1,1.4-0.5,1.7L6.6,12.9l12.8,7.7c0.6,0.3,0.8,1.1,0.5,1.7C19.6,22.6,19.2,22.8,18.7,22.8z"/>
</g>
</svg>
