<?xml version="1.0" encoding="utf-8"?>
<!-- Generator: Adobe Illustrator 24.1.3, SVG Export Plug-In . SVG Version: 6.00 Build 0)  -->
<svg version="1.1" id="Layer_1" xmlns="http://www.w3.org/2000/svg" xmlns:xlink="http://www.w3.org/1999/xlink" x="0px" y="0px"
	 viewBox="0 0 24 16.3" style="enable-background:new 0 0 24 16.3;" xml:space="preserve">
<style type="text/css">
	.st0{fill:#15495E;}
</style>
<g>
	<g>
		<path class="st0" d="M12,15.9c-3,0-5.9,0-8.9,0c-1.5,0-2-0.5-2.1-2c0-3.8,0-7.7,0-11.6c0-1.4,0.6-1.9,2.1-2c0.6,0,1.2,0,1.8,0
			l0.8,0l3.8,0c3.8,0,7.6,0,11.4,0c0.1,0,0.2,0,0.2,0c0.7,0,1.5,0,1.7,1.1c0,0,0,0,0,0.1c0,0,0,0,0,0C22.9,1.7,23,1.8,23,2
			c0,0.8,0,1.6,0,2.5c0,3.1,0,6.4,0,9.6c0,1.5-0.8,1.8-2.1,1.8C18,15.9,15,15.9,12,15.9z M4.1,0.9c-0.3,0-0.6,0-1,0
			c-1.3,0-1.6,0.3-1.6,1.5c0,3.8,0,7.7,0,11.6c0,1.2,0.4,1.5,1.6,1.5c5.9,0,11.9,0,17.8,0c1.3,0,1.6-0.3,1.6-1.4c0-3.2,0-6.4,0-9.6
			c0-0.8,0-1.6,0-2.5c0,0,0-0.1-0.1-0.1c0,0-0.1-0.1-0.1-0.1c0-0.1,0-0.1,0-0.2c0,0,0,0,0,0c-0.1-0.7-0.5-0.7-1.3-0.7
			c-0.1,0-0.2,0-0.2,0c0,0,0,0,0,0c-3.8,0-7.6,0-11.4,0l-3.8,0l-0.8,0C4.6,0.9,4.4,0.9,4.1,0.9z"/>
		<path class="st0" d="M12.1,10.7c-0.6,0-1.3-0.4-2.3-1.3C9.4,9.2,9,8.9,8.7,8.5C8.4,8.3,8.2,8,7.9,7.8C6.9,6.9,5.9,5.9,5,5
			C3.9,3.9,2.7,2.7,1.5,1.7c-0.1-0.1-0.1-0.2,0-0.3c0.1-0.1,0.2-0.1,0.3,0c1.3,1,2.4,2.2,3.5,3.3c0.9,0.9,1.9,1.9,2.9,2.8
			C8.5,7.7,8.8,7.9,9,8.2C9.4,8.5,9.7,8.8,10,9.1c2,1.6,2.1,1.6,4.1,0c1.2-1,2.4-2.1,3.5-3.2C18,5.4,18.4,5,18.8,4.6
			c0.3-0.3,0.6-0.6,0.9-0.9c0.8-0.8,1.6-1.6,2.6-2.3c0.1-0.1,0.2-0.1,0.3,0c0.1,0.1,0.1,0.2,0,0.3C21.6,2.4,20.8,3.2,20,4
			c-0.3,0.3-0.6,0.6-0.9,0.9c-0.4,0.4-0.8,0.8-1.2,1.2c-1.1,1.1-2.3,2.3-3.5,3.3C13.3,10.3,12.7,10.7,12.1,10.7z"/>
		<path class="st0" d="M22.4,15c-0.1,0-0.1,0-0.1,0c-1.2-1-2.3-2.1-3.4-3.2c-1.1-1.1-2.2-2.2-3.4-3.2c-0.1-0.1-0.1-0.2,0-0.3
			c0.1-0.1,0.2-0.1,0.3,0c1.2,1,2.4,2.1,3.5,3.2c1.1,1.1,2.2,2.2,3.4,3.1c0.1,0.1,0.1,0.2,0,0.3C22.6,14.9,22.5,15,22.4,15z"/>
		<path class="st0" d="M1.6,15c-0.1,0-0.1,0-0.2-0.1c-0.1-0.1-0.1-0.2,0-0.3c1.3-1.1,2.5-2.3,3.7-3.5c1-1,1.9-2,3-2.9
			c0.1-0.1,0.2-0.1,0.3,0c0.1,0.1,0.1,0.2,0,0.3c-1,0.9-2,1.9-3,2.8c-1.2,1.2-2.4,2.4-3.7,3.5C1.7,14.9,1.7,15,1.6,15z"/>
	</g>
</g>
</svg>
