<?xml version="1.0" encoding="utf-8"?>
<!-- Generator: Adobe Illustrator 24.1.3, SVG Export Plug-In . SVG Version: 6.00 Build 0)  -->
<svg version="1.1" id="Layer_1" xmlns="http://www.w3.org/2000/svg" xmlns:xlink="http://www.w3.org/1999/xlink" x="0px" y="0px"
	 viewBox="0 0 32 22.3" style="enable-background:new 0 0 32 22.3;" xml:space="preserve">
<style type="text/css">
	.st0{fill:#15495E;}
</style>
<g>
	<g>
		<path class="st0" d="M17.2,21.6c-2.7,0-5.4,0-8-0.1l-0.3,0c-1,0-2.1-0.1-3-0.2C3,21,1.5,19.4,1.3,16.7C1.1,14,1.1,11.4,1.1,8.3
			c0-0.8,0.1-1.7,0.2-2.5c0-0.3,0.1-0.6,0.1-0.9c0.3-2.1,1.9-3.6,4.1-3.7c2.3-0.2,4.7-0.3,7-0.4l1.6-0.1c0.6,0,1.2,0,1.8,0
			c0.1,0,0.2,0,0.3,0l0,0l0.5-0.1c0.9,0,1.8,0.1,2.6,0.1c2.1,0.1,4.2,0.2,6.3,0.3c1.2,0.1,2.9,0.3,4,1.9c0.7,1,0.8,2.1,0.9,3.1
			l0,0.1C31,9,31,12,30.8,15.4c-0.1,0.8-0.2,1.5-0.3,2.2c-0.4,2.1-1.9,3.4-3.9,3.6c-2.1,0.2-3.9,0.3-5.8,0.4
			C19.5,21.6,18.3,21.6,17.2,21.6z M15.2,1.7c-0.3,0-0.6,0-1,0l-1.6,0.1c-2.3,0.1-4.7,0.2-7,0.4C4.2,2.2,2.7,3.2,2.4,5
			c0,0.3-0.1,0.6-0.1,0.9C2.2,6.7,2.1,7.5,2.1,8.3c0,3.1,0.1,5.7,0.2,8.3c0.1,2.3,1.3,3.5,3.7,3.7c0.9,0.1,1.9,0.2,2.9,0.2l0.3,0
			c3.8,0,7.7,0.1,11.5,0c1.9,0,3.7-0.2,5.8-0.4c1.6-0.1,2.7-1.2,3-2.8c0.1-0.7,0.3-1.4,0.3-2.1c0.2-3.3,0.2-6.2-0.1-9l0-0.1
			c-0.1-1-0.2-1.9-0.7-2.7c-0.6-0.9-1.6-1.4-3.2-1.5c-2.1-0.1-4.2-0.2-6.3-0.3c-0.7,0-1.4-0.1-2.1-0.1l0,0l-0.5,0
			c-0.3,0-0.6,0-0.8,0C15.7,1.7,15.4,1.7,15.2,1.7z M12.7,16.6V5.9l8.7,5.4L12.7,16.6z M13.7,7.6v7.1l5.8-3.6L13.7,7.6z"/>
	</g>
</g>
</svg>
