<?xml version="1.0" encoding="utf-8"?>
<!-- Generator: Adobe Illustrator 24.1.3, SVG Export Plug-In . SVG Version: 6.00 Build 0)  -->
<svg version="1.1" id="Layer_1" xmlns="http://www.w3.org/2000/svg" xmlns:xlink="http://www.w3.org/1999/xlink" x="0px" y="0px"
	 viewBox="0 0 72 82" style="enable-background:new 0 0 72 82;" xml:space="preserve">
<style type="text/css">
	.st0{fill:#E2B668;}
</style>
<g>
	<path class="st0" d="M35.9,80L35.9,80c-5.3,0-9.6-4.3-9.6-9.5V68c0-0.2,0-0.5-0.1-0.7L26.1,67c-1.5-5.4-4.2-10.6-8-15.3
		c-1.2-1.5-2.2-3.1-3-4.8c-1.4-3.1-2.2-6.3-2.2-9.7c0-6.3,2.5-12.2,7.1-16.6c4.6-4.4,10.6-6.6,16.9-6.4c5.6,0.2,10.9,2.6,15,6.5
		c4.1,4,6.5,9.2,6.9,14.9c0.3,3.8-0.4,7.6-2,11l-0.2,0.5c-0.8,1.6-1.8,3.1-2.9,4.5c-3.5,4.3-6.1,9.4-7.6,15.2l-0.2,0.8
		c-0.2,0.9-0.4,1.9-0.4,2.8C45.4,75.7,41.1,80,35.9,80z M35.8,15.2c-5.7,0-11.1,2.1-15.2,6.1c-4.4,4.2-6.8,9.8-6.8,15.9
		c0,3.2,0.7,6.4,2.1,9.3c0.8,1.7,1.8,3.2,2.9,4.6c3.9,4.8,6.7,10.1,8.2,15.6l0.1,0.3c0.1,0.3,0.1,0.6,0.1,0.9v2.5
		c0,4.7,3.8,8.5,8.5,8.5h0.1c4.7,0,8.5-3.8,8.5-8.5c0-1,0.1-2,0.4-3l0.2-0.8c1.6-5.9,4.2-11.1,7.8-15.5c1.1-1.3,2-2.8,2.8-4.3
		l0.2-0.5c1.5-3.3,2.2-6.9,1.9-10.6C57,24.5,48,15.7,36.8,15.3C36.4,15.3,36.1,15.2,35.8,15.2z"/>
	<rect x="26.8" y="67.4" class="st0" width="18.2" height="1"/>
	<rect x="26.8" y="70.4" class="st0" width="17.9" height="1"/>
	<polygon class="st0" points="30.6,78.1 41.1,78.1 38.9,79.1 35.3,79.3 	"/>
	<path class="st0" d="M39.4,40.3c0-2-1.6-3.6-3.6-3.6c-2,0-3.6,1.6-3.6,3.6c0,1.3,0.7,2.5,1.8,3.1v2c0,1,0.8,1.8,1.8,1.8
		c1,0,1.8-0.8,1.8-1.8v-2C38.7,42.8,39.4,41.7,39.4,40.3z"/>
	<path class="st0" d="M36,9.8c-0.3,0-0.5-0.2-0.5-0.5V2.5C35.5,2.2,35.7,2,36,2c0.3,0,0.5,0.2,0.5,0.5v6.9C36.5,9.6,36.2,9.8,36,9.8
		z"/>
	<path class="st0" d="M17.7,16.6c-0.1,0-0.3-0.1-0.4-0.2l-4.5-5.2c-0.2-0.2-0.2-0.5,0.1-0.7c0.2-0.2,0.5-0.2,0.7,0.1l4.5,5.2
		c0.2,0.2,0.2,0.5-0.1,0.7C18,16.5,17.9,16.6,17.7,16.6z"/>
	<path class="st0" d="M8.2,33.5C8.2,33.5,8.2,33.5,8.2,33.5l-6.9-1.1c-0.3,0-0.4-0.3-0.4-0.6c0-0.3,0.3-0.5,0.6-0.4l6.8,1.1
		c0.3,0,0.4,0.3,0.4,0.6C8.7,33.3,8.4,33.5,8.2,33.5z"/>
	<path class="st0" d="M6.1,56.1c-0.2,0-0.3-0.1-0.4-0.2c-0.1-0.2-0.1-0.5,0.2-0.7l5.9-3.6c0.2-0.1,0.5-0.1,0.7,0.2
		c0.1,0.2,0.1,0.5-0.2,0.7l-5.9,3.6C6.2,56.1,6.1,56.1,6.1,56.1z"/>
	<path class="st0" d="M54.3,16.7c-0.1,0-0.2,0-0.3-0.1c-0.2-0.2-0.2-0.5-0.1-0.7l4.5-5.2c0.2-0.2,0.5-0.2,0.7-0.1
		c0.2,0.2,0.2,0.5,0.1,0.7l-4.5,5.2C54.6,16.6,54.5,16.7,54.3,16.7z"/>
	<path class="st0" d="M63.8,33.8c-0.2,0-0.4-0.2-0.5-0.4c0-0.3,0.1-0.5,0.4-0.6l6.8-1c0.3,0,0.5,0.1,0.6,0.4c0,0.3-0.1,0.5-0.4,0.6
		L63.8,33.8C63.8,33.8,63.8,33.8,63.8,33.8z"/>
	<path class="st0" d="M65.6,56.6c-0.1,0-0.2,0-0.3-0.1l-5.8-3.7c-0.2-0.1-0.3-0.4-0.2-0.7c0.1-0.2,0.4-0.3,0.7-0.2l5.8,3.7
		c0.2,0.1,0.3,0.4,0.2,0.7C65.9,56.5,65.8,56.6,65.6,56.6z"/>
</g>
</svg>
