<?xml version="1.0" encoding="utf-8"?>
<!-- Generator: Adobe Illustrator 24.1.3, SVG Export Plug-In . SVG Version: 6.00 Build 0)  -->
<svg version="1.1" id="Layer_1" xmlns="http://www.w3.org/2000/svg" xmlns:xlink="http://www.w3.org/1999/xlink" x="0px" y="0px"
	 viewBox="0 0 72 60" style="enable-background:new 0 0 72 60;" xml:space="preserve">
<style type="text/css">
	.st0{fill:#E2B668;}
</style>
<g>
	<path class="st0" d="M70,57.4H30.3V52c0-2.3,1.9-4.1,4.1-4.1h31.4c2.3,0,4.1,1.9,4.1,4.1V57.4z M31.1,56.6h38.1V52
		c0-1.8-1.5-3.3-3.3-3.3H34.5c-1.8,0-3.3,1.5-3.3,3.3V56.6z"/>
	<path class="st0" d="M67,48.5H33.7v-0.4c0-2.3,1.9-4.1,4.1-4.1h25.1c2.3,0,4.1,1.9,4.1,4.1V48.5z M34.5,47.7h31.7
		c-0.2-1.7-1.6-2.9-3.3-2.9H37.8C36.1,44.8,34.7,46.1,34.5,47.7z"/>
	<g>
		<path class="st0" d="M7.2,53.4c-0.1,0-0.3,0-0.4,0c-1.5-0.1-2.8-0.8-3.7-1.9c-0.9-1.1-1.3-2.6-1.1-4c0.2-1.4,1-2.7,2.2-3.6
			L29,26.3l4.1,5.1L10.8,52C9.8,52.9,8.6,53.4,7.2,53.4z M28.9,27.4L4.7,44.6c-1,0.7-1.7,1.8-1.8,3S3,50,3.8,51
			c0.8,1,1.9,1.5,3.1,1.6c1.2,0.1,2.4-0.3,3.3-1.2l21.8-20.1L28.9,27.4z"/>
		<g>
			<path class="st0" d="M38.8,35L26.7,20l15-12.1l12.1,15L38.8,35z M27.8,20.1l11.1,13.8l13.8-11.1L41.5,9L27.8,20.1z"/>
			<path class="st0" d="M25,18l-1-1.2c-1.8-2.3-1.5-5.6,0.8-7.5l6.7-5.5C33.8,2,37.2,2.3,39,4.6l1,1.2L25,18z M34.9,3.4
				c-1,0-2,0.3-2.8,1l-6.7,5.5c-1.9,1.6-2.2,4.4-0.7,6.4l0.5,0.6L38.9,5.7l-0.5-0.6C37.5,4,36.2,3.4,34.9,3.4z"/>
			<path class="st0" d="M45.6,40.2c-0.2,0-0.4,0-0.6,0c-1.4-0.1-2.7-0.8-3.6-1.9l-1-1.2l15-12.1l1,1.2c1.8,2.3,1.5,5.6-0.8,7.5
				l-6.7,5.5C48,39.8,46.8,40.2,45.6,40.2z M41.6,37.2l0.5,0.6c0.8,0.9,1.8,1.5,3,1.7c1.2,0.1,2.4-0.2,3.3-1l6.7-5.5
				c1.9-1.6,2.2-4.4,0.7-6.4L55.4,26L41.6,37.2z"/>
		</g>
	</g>
</g>
</svg>
