<?xml version="1.0" encoding="utf-8"?>
<!-- Generator: Adobe Illustrator 24.1.3, SVG Export Plug-In . SVG Version: 6.00 Build 0)  -->
<svg version="1.1" id="Layer_1" xmlns="http://www.w3.org/2000/svg" xmlns:xlink="http://www.w3.org/1999/xlink" x="0px" y="0px"
	 viewBox="0 0 72 100" style="enable-background:new 0 0 72 100;" xml:space="preserve">
<style type="text/css">
	.st0{fill:#E2B668;}
</style>
<g>
	<path class="st0" d="M61.5,98H10.5C6.4,98,3,94.4,3,89.9V10.1C3,5.6,6.4,2,10.5,2h50.9c4.1,0,7.5,3.6,7.5,8.1v79.7
		C69,94.4,65.6,98,61.5,98z M10.5,3.5c-3.4,0-6.2,3-6.2,6.7v79.7c0,3.7,2.8,6.7,6.2,6.7h50.9c3.4,0,6.2-3,6.2-6.7V10.1
		c0-3.7-2.8-6.7-6.2-6.7H10.5z"/>
	<polygon class="st0" points="67.8,14.5 57.3,3.2 58.3,2.2 68.8,13.5 	"/>
	<path class="st0" d="M26.6,34.7H11.1c-0.4,0-0.7-0.3-0.7-0.7s0.3-0.7,0.7-0.7h15.5c0.4,0,0.7,0.3,0.7,0.7S27,34.7,26.6,34.7z"/>
	<path class="st0" d="M61.6,51.5H11.1c-0.4,0-0.7-0.3-0.7-0.7s0.3-0.7,0.7-0.7h50.5c0.4,0,0.7,0.3,0.7,0.7S61.9,51.5,61.6,51.5z"/>
	<path class="st0" d="M61.6,63.1H11.1c-0.4,0-0.7-0.3-0.7-0.7c0-0.4,0.3-0.7,0.7-0.7h50.5c0.4,0,0.7,0.3,0.7,0.7
		C62.2,62.8,61.9,63.1,61.6,63.1z"/>
	<path class="st0" d="M61.6,74.7H11.1c-0.4,0-0.7-0.3-0.7-0.7s0.3-0.7,0.7-0.7h50.5c0.4,0,0.7,0.3,0.7,0.7S61.9,74.7,61.6,74.7z"/>
	<path class="st0" d="M61.6,86.4H48.8c-0.4,0-0.7-0.3-0.7-0.7s0.3-0.7,0.7-0.7h12.8c0.4,0,0.7,0.3,0.7,0.7S61.9,86.4,61.6,86.4z"/>
</g>
</svg>
