<?xml version="1.0" encoding="utf-8"?>
<!-- Generator: Adobe Illustrator 24.1.3, SVG Export Plug-In . SVG Version: 6.00 Build 0)  -->
<svg version="1.1" id="Layer_1" xmlns="http://www.w3.org/2000/svg" xmlns:xlink="http://www.w3.org/1999/xlink" x="0px" y="0px"
	 viewBox="0 0 50 48" style="enable-background:new 0 0 50 48;" xml:space="preserve">
<style type="text/css">
	.st0{fill:#E2B668;}
	.st1{fill:#FFF7EB;}
	.st2{fill:#15495E;}
	.st3{fill:none;stroke:#E2B668;stroke-width:3;stroke-miterlimit:10;}
	.st4{fill:none;stroke:#E2B668;stroke-width:2;stroke-miterlimit:10;}
	.st5{fill:none;stroke:#E2B668;stroke-width:2;stroke-linecap:round;stroke-miterlimit:10;}
	.st6{fill:none;stroke:#E2B668;stroke-miterlimit:10;}
	.st7{fill:none;stroke:#000000;stroke-width:2;stroke-linecap:round;stroke-linejoin:round;stroke-miterlimit:10;}
</style>
<g>
	<path class="st0" d="M33.9,47c-4.4-0.3-8.4-1.4-12.1-3.8c-7.2-4.8-13-10.9-16.8-18.7c-1.7-3.4-2.6-7.1-2.2-10.9
		c0.5-5,4.5-8.7,9.4-8.6c1.9,0,2.5,0.5,3,2.4c0.7,2.5,1.3,5,2.1,7.4c0.6,2.1,0,3.7-1.6,5.1c-0.3,0.3-0.7,0.5-1,0.8
		c-1.1,0.9-1.2,1.8-0.5,2.9c2.8,4.1,6,7.8,9.8,11c0.4,0.3,0.9,0.6,1.4,0.9c0.9,0.5,1.8,0.5,2.6-0.3c0.5-0.5,0.9-1,1.4-1.5
		c1.1-1.2,2.4-1.8,4.1-1.3c2.6,0.8,5.3,1.6,8,2.3c1.3,0.4,1.9,1.3,2.1,2.6c0.7,4.2-1.4,7.6-5.7,8.9C36.7,46.6,35.3,46.8,33.9,47z
		 M34.2,45.4c0.4,0,1,0,1.5-0.1c4.5-0.5,7.1-3.4,6.6-7.4c-0.1-1-0.5-1.6-1.5-1.9c-2.3-0.7-4.7-1.3-7-2c-1.6-0.5-2.7-0.1-3.8,1.1
		c-2.3,2.7-4,2.9-6.8,0.7c-4.2-3.3-7.5-7.3-10.4-11.7c-0.9-1.3-0.7-2.9,0.4-4.1c0.4-0.5,0.9-0.9,1.4-1.2c1.3-1,1.7-2.2,1.3-3.8
		c-0.7-2.4-1.4-4.9-2-7.3C13.6,6.7,13,6.4,12,6.4C8.3,6.5,5.3,9,4.5,12.7C3.7,16.3,4.5,19.7,6,23c3.8,8.3,9.8,14.7,17.5,19.5
		C26.7,44.5,30.3,45.3,34.2,45.4z"/>
	<path class="st0" d="M47.2,24.8c0,0.6,0.1,1.3,0,1.9c-0.1,0.3-0.5,0.6-0.7,0.9c-0.2-0.3-0.6-0.6-0.7-0.9c-0.2-1.9-0.1-3.9-0.5-5.8
		c-1.9-9.8-8-15.7-17.6-18.2c-0.6-0.2-1.7-0.1-1.5-1.1c0.2-1,1.2-0.5,1.8-0.3C39.5,3.8,47.1,13.3,47.2,24.8z"/>
	<path class="st0" d="M39.6,24c0,0.8,0.1,1.3,0,1.8c-0.1,0.3-0.5,0.6-0.7,0.9c-0.2-0.3-0.6-0.6-0.6-1c-0.2-1.5-0.1-3-0.4-4.5
		c-1.3-6.1-5.3-9.5-11.2-11.1c-0.2,0-0.4,0-0.5-0.1c-0.3-0.3-0.6-0.7-0.9-1c0.4-0.1,0.8-0.5,1.2-0.4C34.3,10.2,39.4,16.2,39.6,24z"
		/>
	<path class="st0" d="M32.1,24c0,0.1,0,0.3,0,0.4c-0.2,0.5-0.4,1.3-0.7,1.4c-0.9,0.1-0.7-0.7-0.7-1.3c-0.1-3.9-1.5-5.7-5.2-6.7
		c-0.4-0.1-0.7-0.6-1.1-1c0.5-0.1,1-0.5,1.4-0.4C29.9,17.3,32,19.8,32.1,24z"/>
</g>
</svg>
