<?xml version="1.0" encoding="utf-8"?>
<!-- Generator: Adobe Illustrator 24.1.3, SVG Export Plug-In . SVG Version: 6.00 Build 0)  -->
<svg version="1.1" id="Layer_1" xmlns="http://www.w3.org/2000/svg" xmlns:xlink="http://www.w3.org/1999/xlink" x="0px" y="0px"
	 viewBox="0 0 50 100" style="enable-background:new 0 0 50 100;" xml:space="preserve">
<style type="text/css">
	.st0{fill:#E2B668;}
</style>
<g>
	<path class="st0" d="M35.1,80.4H25v-1.3h9.2c16-47.3-4.8-71-9.1-75.3L25,3.7l-0.1,0.1c-4.4,4.3-25.4,28.2-9.4,75.3h9.2v1.3H14.6
		L14.4,80C-2.1,31.9,19.5,7.4,24,2.9L25,2l1,1c4.4,4.4,25.8,28.7,9.3,77L35.1,80.4z"/>
	<path class="st0" d="M3.7,87.4c-0.3,0-0.7-0.1-1-0.3c-0.7-0.4-1.1-1.1-1.1-1.8V77c0-0.6,0.3-1.2,0.7-1.6l8.8-7.5l0.8,1l-8.8,7.5
		c-0.2,0.2-0.3,0.4-0.3,0.6v8.3c0,0.3,0.2,0.6,0.4,0.7c0.3,0.2,0.6,0.1,0.9,0l10.6-6.8l0.7,1.1L4.8,87.1C4.4,87.3,4,87.4,3.7,87.4z"
		/>
	<path class="st0" d="M46.3,87.4c-0.4,0-0.8-0.1-1.1-0.3l-10.6-6.8l0.7-1.1L45.9,86c0.3,0.2,0.6,0.2,0.9,0c0.3-0.2,0.4-0.4,0.4-0.7
		V77c0-0.2-0.1-0.5-0.3-0.6l-9.4-7.4l0.8-1l9.4,7.5c0.5,0.4,0.8,1,0.8,1.6v8.3c0,0.8-0.4,1.5-1.1,1.8C47,87.3,46.7,87.4,46.3,87.4z"
		/>
	<path class="st0" d="M25,27.5c-2.9,0-5.3-2.4-5.3-5.3s2.4-5.3,5.3-5.3s5.3,2.4,5.3,5.3S27.9,27.5,25,27.5z M25,18.1
		c-2.2,0-4.1,1.8-4.1,4.1c0,2.2,1.8,4.1,4.1,4.1s4.1-1.8,4.1-4.1C29.1,19.9,27.2,18.1,25,18.1z"/>
	<path class="st0" d="M25,89.2c-0.3,0-0.6-0.3-0.6-0.6V63.7c0-0.3,0.3-0.6,0.6-0.6s0.6,0.3,0.6,0.6v24.9
		C25.6,88.9,25.3,89.2,25,89.2z"/>
	<path class="st0" d="M33.2,98c-0.3,0-0.6-0.3-0.6-0.6V84.8c0-0.3,0.3-0.6,0.6-0.6c0.3,0,0.6,0.3,0.6,0.6v12.6
		C33.8,97.7,33.5,98,33.2,98z"/>
	<path class="st0" d="M16.8,98c-0.3,0-0.6-0.3-0.6-0.6V84.8c0-0.3,0.3-0.6,0.6-0.6c0.3,0,0.6,0.3,0.6,0.6v12.6
		C17.4,97.7,17.2,98,16.8,98z"/>
</g>
</svg>
