<?xml version="1.0" encoding="utf-8"?>
<!-- Generator: Adobe Illustrator 24.1.3, SVG Export Plug-In . SVG Version: 6.00 Build 0)  -->
<svg version="1.1" id="Layer_1" xmlns="http://www.w3.org/2000/svg" xmlns:xlink="http://www.w3.org/1999/xlink" x="0px" y="0px"
	 viewBox="0 0 22 22.3" style="enable-background:new 0 0 22 22.3;" xml:space="preserve">
<style type="text/css">
	.st0{fill:#15495E;}
</style>
<g>
	<g>
		<path class="st0" d="M22,11.1c0,1.9,0,3.7,0,5.6c0,3-2.2,5.3-5.2,5.4c-3.9,0.1-7.7,0.1-11.6,0c-3.1,0-5.2-2.3-5.2-5.4
			C0,13,0,9.2,0,5.5c0-3.1,2.2-5.3,5.3-5.4c3.8,0,7.5,0,11.3,0c3.1,0,5.3,2.3,5.3,5.4C22,7.4,22,9.3,22,11.1z M11,1.2
			C11,1.2,11,1.2,11,1.2c-1.9,0-3.9,0-5.8,0C2.8,1.3,1.1,3,1.1,5.5c0,3.7,0,7.5,0,11.2c0,2.5,1.7,4.3,4.2,4.3c3.8,0,7.6,0,11.4,0
			c2.5,0,4.2-1.8,4.2-4.4c0-3.7,0-7.4,0-11.1c0-2.6-1.7-4.4-4.4-4.4C14.7,1.2,12.9,1.2,11,1.2z"/>
		<path class="st0" d="M11.1,5.7c3.1,0,5.4,2.5,5.4,5.5c0,2.9-2.5,5.4-5.4,5.4c-3,0-5.5-2.5-5.4-5.5C5.6,8,8,5.7,11.1,5.7z M11,6.8
			c-2.4,0-4.4,2-4.4,4.4c0,2.4,2,4.4,4.4,4.4c2.4,0,4.4-2,4.3-4.4C15.4,8.7,13.4,6.8,11,6.8z"/>
		<path class="st0" d="M17.3,6C16.6,6,16,5.5,16,4.8c0-0.7,0.6-1.3,1.3-1.2c0.6,0,1.2,0.6,1.2,1.2C18.5,5.4,18,6,17.3,6z"/>
	</g>
</g>
</svg>
