<?xml version="1.0" encoding="utf-8"?>
<!-- Generator: Adobe Illustrator 24.1.3, SVG Export Plug-In . SVG Version: 6.00 Build 0)  -->
<svg version="1.1" id="Layer_1" xmlns="http://www.w3.org/2000/svg" xmlns:xlink="http://www.w3.org/1999/xlink" x="0px" y="0px"
	 viewBox="0 0 20 20.3" style="enable-background:new 0 0 20 20.3;" xml:space="preserve">
<style type="text/css">
	.st0{fill:#15495E;}
</style>
<g>
	<path class="st0" d="M7.4,19.6c-0.2,0-0.3,0-0.5-0.2c-0.1-0.1-0.2-0.4-0.2-0.5c0-3.9,0-7.8,0-11.7c0-0.2,0-0.4,0.2-0.5
		C7,6.6,7.2,6.6,7.4,6.6c1.3,0,2.4,0,3.4,0c0.1,0,0.4,0,0.5,0.2c0.1,0.2,0.2,0.4,0.2,0.5c0,0.1,0,0.3,0,0.4c0.3-0.3,0.6-0.5,0.9-0.7
		c1.3-0.8,3-0.9,4.4-0.3c1.4,0.5,2.4,1.7,2.8,3.2c0.2,0.7,0.3,1.4,0.3,2.1c0,1.7,0,3.4,0,5.1l0,2.5l-0.4,0c-0.1,0-0.2,0-0.3,0
		c-1.1,0-2.2,0-3.3,0c-0.6,0-0.7-0.1-0.7-0.7l0-1.9c0-1.6,0-3.2,0-4.8c0-0.5-0.1-1-0.4-1.4c-0.3-0.3-0.7-0.6-1.1-0.6
		c-0.5-0.1-1,0.1-1.4,0.4c-0.5,0.4-0.7,0.9-0.7,1.5c0,2.3,0,4.5,0,6.8c0,0.6-0.1,0.7-0.7,0.7l-1.1,0C8.9,19.6,8.1,19.6,7.4,19.6
		C7.4,19.6,7.4,19.6,7.4,19.6z M7.3,19.1C7.3,19.1,7.3,19.1,7.3,19.1c0.8,0,1.6,0,2.3,0l1.1,0c0.1,0,0.1,0,0.2,0c0-0.1,0-0.1,0-0.2
		c0-2.3,0-4.5,0-6.8c0-0.7,0.3-1.4,0.9-1.9c0.5-0.4,1.2-0.7,1.8-0.6c0.6,0.1,1.2,0.4,1.5,0.8c0.3,0.5,0.5,1,0.5,1.7
		c0,1.6,0,3.2,0,4.8l0,1.9c0,0.1,0,0.1,0,0.2c0.1,0,0.1,0,0.2,0c1.1,0,2.2,0,3.3,0c0.1,0,0.1,0,0.2,0l0-2.1c0-1.7,0-3.4,0-5
		c0-0.7-0.1-1.4-0.3-2c-0.5-1.7-1.6-2.5-2.5-2.8c-1.3-0.5-2.8-0.4-4,0.3c-0.3,0.2-0.6,0.5-0.9,0.7c-0.1,0.1-0.3,0.3-0.4,0.4L11,9
		l0-0.9c0-0.3,0-0.5,0-0.8c0-0.1,0-0.1,0-0.1c0,0,0,0-0.1,0c0,0,0,0,0,0c-1.1,0-2.2,0-3.4,0c-0.1,0-0.1,0-0.1,0c0,0,0,0,0,0.1
		c0,3.9,0,7.8,0,11.7C7.3,19,7.3,19.1,7.3,19.1C7.3,19.1,7.3,19.1,7.3,19.1z"/>
	<path class="st0" d="M4.5,19.6C4.5,19.6,4.5,19.6,4.5,19.6l-3.7,0c-0.1,0-0.2,0-0.2,0l-0.3-0.1l0-12.2c0-0.6,0.1-0.7,0.7-0.7l1,0
		c0.8,0,1.6,0,2.4,0c0.1,0,0.3,0,0.5,0.2c0.1,0.1,0.2,0.3,0.2,0.5c0,3.9,0,7.8,0,11.8c0,0.2,0,0.3-0.2,0.5
		C4.9,19.6,4.7,19.6,4.5,19.6z M0.9,19.1l3.7,0c0,0,0,0,0-0.1c0-3.9,0-7.9,0-11.8c0,0,0-0.1,0-0.1c0,0,0,0-0.1,0c0,0,0,0,0,0
		c-0.8,0-1.6,0-2.4,0l-1,0c-0.1,0-0.1,0-0.2,0c0,0,0,0.1,0,0.2L0.9,19.1z"/>
	<path class="st0" d="M2.7,5.5c-1.4,0-2.4-0.8-2.6-2C-0.1,2,0.9,1,1.9,0.7c1.2-0.3,2.5,0.1,3,1.1c0.5,0.8,0.5,1.7,0,2.5
		C4.6,5.1,3.8,5.5,2.7,5.5L2.7,5.5C2.7,5.5,2.7,5.5,2.7,5.5z M2.8,1.2c-0.2,0-0.4,0-0.7,0.1c-0.8,0.2-1.6,1-1.4,2.1
		c0.2,1,0.9,1.6,2,1.6c0,0,0,0,0,0l0,0c0.8,0,1.5-0.3,1.8-0.9c0.4-0.7,0.4-1.3,0-2C4.2,1.5,3.5,1.2,2.8,1.2z"/>
</g>
</svg>
